# xmcd CD database file
#
# Track frame offsets:
#	182
#	27140
#	43755
#	72257
#	91697
#	113455
#	143650
#	161337
#	188562
#	205012
#
# Disc length: 2988 seconds
#
# Revision: 0
# Processed by: cddbd v1.5.2PL0 Copyright (c) Steve Scherf et al.
# Submitted via: CDex 1.51
#
DISCID=720baa0a
DTITLE=doc cheatham - hey doc!
DYEAR=1975
DGENRE=Jazz
TTITLE0=rosetta
TTITLE1=i cover the waterfront
TTITLE2=blues in my heart
TTITLE3=what can i say after i say i'm sorry
TTITLE4=saint james infirmary
TTITLE5=sugar
TTITLE6=if i could be with you
TTITLE7=rose room
TTITLE8=i want a little girl
TTITLE9=ain't misbehavin
EXTD=YEAR: 1975
EXTT0=
EXTT1=
EXTT2=
EXTT3=
EXTT4=
EXTT5=
EXTT6=
EXTT7=
EXTT8=
EXTT9=
PLAYORDER=
